<?xml version="1.0" encoding="UTF-8"?>
<svg version="1.1" xmlns="http://www.w3.org/2000/svg" width="32" height="32">
<path d="M0 0 C2.13586678 3.20380017 2.23132175 4.01939967 2.125 7.6875 C2.10695313 8.49574219 2.08890625 9.30398438 2.0703125 10.13671875 C2.03550781 11.05904297 2.03550781 11.05904297 2 12 C0.35 11.67 -1.3 11.34 -3 11 C-2.83242188 11.67546875 -2.66484375 12.3509375 -2.4921875 13.046875 C-2.28851563 13.93890625 -2.08484375 14.8309375 -1.875 15.75 C-1.56175781 17.07257812 -1.56175781 17.07257812 -1.2421875 18.421875 C-0.96911696 21.32875493 -1.46491972 22.56661348 -3 25 C-2.01 25 -1.02 25 0 25 C0 25.99 0 26.98 0 28 C-2.97 28 -5.94 28 -9 28 C-10.51708428 16.47835991 -10.51708428 16.47835991 -8 11 C-9.32 10.67 -10.64 10.34 -12 10 C-11.51834131 3.61802233 -11.51834131 3.61802233 -9.375 1.0625 C-6.07883786 -0.41209885 -3.56419259 -0.3960214 0 0 Z " fill="#11110F" transform="translate(21,2)"/>
<path d="M0 0 C0 0.99 0 1.98 0 3 C-1.98 2.34 -3.96 1.68 -6 1 C-5.67 1.99 -5.34 2.98 -5 4 C-5.27769908 6.3406065 -5.60539977 8.67624308 -6 11 C-7.65 11 -9.3 11 -11 11 C-12.1196437 7.64106891 -12.07992835 6.32285646 -11 3 C-7.76918081 -0.60360602 -4.62522582 -0.26683995 0 0 Z " fill="#020202" transform="translate(21,2)"/>
<path d="M0 0 C0.66 0 1.32 0 2 0 C5.2 6.27692308 5.2 6.27692308 4.1875 9.9375 C3.795625 10.618125 3.40375 11.29875 3 12 C3.99 12 4.98 12 6 12 C6 12.99 6 13.98 6 15 C3.03 15 0.06 15 -3 15 C-3 14.34 -3 13.68 -3 13 C-2.34 13 -1.68 13 -1 13 C-0.67 11.68 -0.34 10.36 0 9 C0.33 9.66 0.66 10.32 1 11 C1.33 9.68 1.66 8.36 2 7 C1.34 7 0.68 7 0 7 C0 4.69 0 2.38 0 0 Z " fill="#141414" transform="translate(15,15)"/>
<path d="M0 0 C3.71599191 -0.20086443 4.77208445 -0.1519437 8 2 C8 3.32 8 4.64 8 6 C5.69 6.33 3.38 6.66 1 7 C0 2.25 0 2.25 0 0 Z " fill="#66661F" transform="translate(15,3)"/>
<path d="M0 0 C0.33 0.66 0.66 1.32 1 2 C1.66 2 2.32 2 3 2 C3 3.65 3 5.3 3 7 C3.66 7 4.32 7 5 7 C4.67 8.98 4.34 10.96 4 13 C3.01 13 2.02 13 1 13 C-1.45410358 9.31884463 -1.23287843 7.34706402 -1 3 C-0.67 2.01 -0.34 1.02 0 0 Z " fill="#070707" transform="translate(12,15)"/>
</svg>
